<svg xmlns="http://www.w3.org/2000/svg" xmlns:xlink="http://www.w3.org/1999/xlink" viewBox="0 0 100 125" version="1.1" x="0px" y="0px"><title>Light Collapse Diagonal Reversed</title><desc>Created with Sketch.</desc><g stroke="none" stroke-width="1" fill="none" fill-rule="evenodd"><g fill="#000000"><path d="M50.8499291,53.1477307 C50.6516886,52.9513956 50.3319111,52.9501183 50.1328117,53.1477307 L42.1553617,61.0655975 C41.6843618,61.5303413 42.3906118,62.2272106 42.8616116,61.7624668 L49.6465103,55.0676877 C49.8420302,54.8747647 50.0005304,54.940659 50.0005304,55.2255755 L50.0005304,72.2993992 C50.0005304,72.5103327 50.1363861,72.6872606 50.3251856,72.7572433 C50.3751326,72.7794209 50.4355684,72.7922346 50.5,72.7922346 C50.7757072,72.7922346 50.9994696,72.5714443 50.9994696,72.2993992 L50.9994696,55.2255755 C50.9994696,54.9454535 51.1619891,54.8787306 51.3534897,55.0676877 L58.1383884,61.7624668 C58.6093882,62.2272106 59.3156382,61.5303413 58.8446383,61.0655975 L50.8499291,53.1477307 Z M50.1500709,47.6445039 C50.3483114,47.840839 50.6680889,47.8421163 50.8671883,47.6445039 L58.8446383,39.7266371 C59.3156382,39.2618933 58.6093882,38.565024 58.1383884,39.0297678 L51.3534897,45.7245469 C51.1579698,45.9174698 50.9994696,45.8515756 50.9994696,45.5666591 L50.9994696,28.4928354 C50.9994696,28.2819019 50.8636139,28.1049739 50.6748144,28.0349913 C50.6248674,28.0128137 50.5644316,28 50.5,28 C50.2242928,28 50.0005304,28.2207903 50.0005304,28.4928354 L50.0005304,45.5666591 C50.0005304,45.8467811 49.8380109,45.9135039 49.6465103,45.7245469 L42.8616116,39.0297678 C42.3906118,38.565024 41.6843618,39.2618933 42.1553617,39.7266371 L50.1500709,47.6445039 Z" transform="translate(50.500000, 50.396117) rotate(-45.000000) translate(-50.500000, -50.396117) "/></g></g><text x="0" y="115" fill="#000000" font-size="5px" font-weight="bold" font-family="'Helvetica Neue', Helvetica, Arial-Unicode, Arial, Sans-serif">Created by Landan Lloyd</text><text x="0" y="120" fill="#000000" font-size="5px" font-weight="bold" font-family="'Helvetica Neue', Helvetica, Arial-Unicode, Arial, Sans-serif">from the Noun Project</text></svg>